<?xml version="1.0" standalone="no"?><!DOCTYPE svg PUBLIC "-//W3C//DTD SVG 1.1//EN" "http://www.w3.org/Graphics/SVG/1.1/DTD/svg11.dtd"><svg t="1742304030205" class="icon" viewBox="0 0 1024 1024" version="1.1" xmlns="http://www.w3.org/2000/svg" p-id="1052" xmlns:xlink="http://www.w3.org/1999/xlink" width="200" height="200"><path d="M563.739 118.863l296.047 250.98a94 94 0 0 1 33.214 71.7V821c0 51.915-42.085 94-94 94H225c-51.915 0-94-42.085-94-94V441.614a94 94 0 0 1 33.206-71.694l296.06-251.051c29.847-25.31 73.623-25.312 103.473-0.006z" fill="#E65252" p-id="1053"></path><path d="M522.353 167.68a16 16 0 0 0-20.404-0.24l-0.29 0.242-296.061 251.05A30.017 30.017 0 0 0 195 441.134V821c0 16.403 13.164 29.731 29.504 30H799c16.403 0 29.731-13.164 30-29.504V441.543a30 30 0 0 0-10.236-22.57l-0.364-0.313-296.047-250.98z" fill="#FFA9A9" p-id="1054"></path><path d="M512 543c17.673 0 32 14.327 32 32v200h-64V575c0-17.673 14.327-32 32-32z" fill="#E65252" p-id="1055"></path></svg>